IKResults
version=1
nRows=15
nColumns=38
inDegrees=yes

Units are S.I. units (second, meters, Newtons, ...)
If the header above contains a line with 'inDegrees', this indicates whether rotational values are in degrees (yes) or radians (no).

endheader
time	sternoclavicular_r2	sternoclavicular_r3	unrotscap_r3	unrotscap_r2	acromioclavicular_r2	acromioclavicular_r3	acromioclavicular_r1	unrothum_r1	unrothum_r3	unrothum_r2	elv_angle	shoulder_elv	shoulder1_r2	shoulder_rot	elbow_flexion	pro_sup	deviation	flexion	proximal_distal_r1	proximal_distal_r3	cmc_flexion	cmc_abduction	mp_flexion	ip_flexion	2mcp_flexion	2mcp_abduction	2pm_flexion	2md_flexion	APLpt_tx	APLpt_ty	APLpt_tz	FPLpt_tx	FPLpt_ty	FPLpt_tz	FPLpt2_tx	FPLpt2_ty	FPLpt2_tz
      0.58000000	     -6.03052809	      2.55424707	     -2.55424707	      6.03052809	     -1.22105927	      9.86817148	      4.43567517	     -4.43567517	     -9.86817148	      1.22105927	     14.86631076	     24.91948170	    -14.86631076	      2.17497956	     82.05970983	     48.70911960	      0.15314918	      0.18006595	     10.80870483	      5.15850955	      3.36700001	      9.26884546	    -27.65299999	    -34.18400000	     -0.77412768	      7.65299997	     26.93900001	     34.89800000	     -0.00021138	     -0.00008455	     -0.00042275	     -0.00027056	     -0.00081169	     -0.00045657	      0.00004241	     -0.00007788	     -0.00009345
      0.59000000	     -6.04123579	      2.55878235	     -2.55878235	      6.04123579	     -1.22322736	      9.88569324	      4.44355108	     -4.44355108	     -9.88569324	      1.22322736	     15.03242016	     24.96372832	    -15.03242016	      2.18762564	     82.19515439	     47.97884909	      0.15535640	      0.18397346	     10.94838428	      5.27045142	      3.36700001	      9.00747951	    -27.65299999	    -34.18400000	     -0.09606532	      7.65299997	     26.93900001	     34.89800000	     -0.00021658	     -0.00008663	     -0.00043315	     -0.00027722	     -0.00083165	     -0.00046780	      0.00004241	     -0.00007788	     -0.00009345
      0.60000000	     -6.03961431	      2.55809557	     -2.55809557	      6.03961431	     -1.22289904	      9.88303990	      4.44235842	     -4.44235842	     -9.88303990	      1.22289904	     14.97348462	     24.95702800	    -14.97348462	      2.19005514	     82.22218250	     47.92604635	      0.15721673	      0.17565586	     11.06576954	      5.03216971	      3.36700001	      8.54515893	    -27.65299999	    -34.18400000	      0.59313854	      7.65299997	     26.93900001	     34.89800000	     -0.00020556	     -0.00008222	     -0.00041112	     -0.00026312	     -0.00078935	     -0.00044401	      0.00004241	     -0.00007788	     -0.00009345
      0.61000000	     -6.08125772	      2.57573375	     -2.57573375	      6.08125772	     -1.23133099	      9.95118390	      4.47298868	     -4.47298868	     -9.95118390	      1.23133099	     14.98588519	     25.12910781	    -14.98588519	      2.24701209	     82.54556042	     47.07719559	      0.14975622	      0.16502444	     10.59305665	      4.72760183	      3.36700001	      7.13637603	    -27.65299999	    -34.18400000	      1.77609484	      7.65299997	     26.93900001	     34.89800000	     -0.00019165	     -0.00007666	     -0.00038329	     -0.00024531	     -0.00073592	     -0.00041395	      0.00004241	     -0.00007788	     -0.00009345
      0.62000000	     -6.07336640	      2.57239136	     -2.57239136	      6.07336640	     -1.22973316	      9.93827079	      4.46718432	     -4.46718432	     -9.93827079	      1.22973316	     14.93729306	     25.09649914	    -14.93729306	      2.34632641	     82.95200688	     45.93966576	      0.17291411	      0.15609948	     12.04334391	      4.47192062	      3.36700001	      8.51470975	    -27.65299999	    -34.18400000	      2.20248914	      7.65299997	     26.93900001	     34.89800000	     -0.00018012	     -0.00007205	     -0.00036024	     -0.00023055	     -0.00069165	     -0.00038905	      0.00004241	     -0.00007788	     -0.00009345
      0.63000000	     -6.05993099	      2.56670075	     -2.56670075	      6.05993099	     -1.22701276	      9.91628549	      4.45730208	     -4.45730208	     -9.91628549	      1.22701276	     14.78286397	     25.04098101	    -14.78286397	      2.30808166	     82.94901597	     45.56072435	      0.16800063	      0.14681764	     11.73985406	      4.20601544	      3.36700001	      8.19496041	    -27.65299999	    -34.18400000	      2.73639950	      7.65299997	     26.93900001	     34.89800000	     -0.00016827	     -0.00006731	     -0.00033653	     -0.00021538	     -0.00064614	     -0.00036346	      0.00004241	     -0.00007788	     -0.00009345
      0.64000000	     -6.02782403	      2.55310176	     -2.55310176	      6.02782403	     -1.22051175	      9.86374664	      4.43368623	     -4.43368623	     -9.86374664	      1.22051175	     14.57639456	     24.90830792	    -14.57639456	      2.30315642	     83.88096536	     45.24895696	      0.16693258	      0.14085366	     11.67356275	      4.03516006	      3.36700001	      8.09704853	    -27.65299999	    -34.18400000	      2.64313955	      7.65299997	     26.93900001	     34.89800000	     -0.00016072	     -0.00006429	     -0.00032145	     -0.00020573	     -0.00061718	     -0.00034716	      0.00004241	     -0.00007788	     -0.00009345
      0.65000000	     -6.06319583	      2.56808359	     -2.56808359	      6.06319583	     -1.22767382	      9.92162798	      4.45970350	     -4.45970350	     -9.92162798	      1.22767382	     14.32737486	     25.05447208	    -14.32737486	      2.61968279	     83.81095523	     44.28315570	      0.16346168	      0.12089321	     11.45747535	      3.46333538	      3.36700001	      8.01465116	    -27.65299999	    -34.18400000	      2.84454717	      7.65299997	     26.93900001	     34.89800000	     -0.00013593	     -0.00005437	     -0.00027186	     -0.00017399	     -0.00052197	     -0.00029361	      0.00004241	     -0.00007788	     -0.00009345
      0.66000000	     -6.04839815	      2.56181599	     -2.56181599	      6.04839815	     -1.22467759	      9.89741351	      4.44881926	     -4.44881926	     -9.89741351	      1.22467759	     14.17712939	     24.99332478	    -14.17712939	      2.67247428	     84.68737159	     40.84873533	      0.17267653	      0.10218629	     12.02874019	      2.92742159	      3.36700001	      9.09745482	    -27.65299999	    -34.18400000	      3.78255817	      7.65299997	     26.93900001	     34.89800000	     -0.00011329	     -0.00004532	     -0.00022659	     -0.00014502	     -0.00043505	     -0.00024471	      0.00004241	     -0.00007788	     -0.00009345
      0.67000000	     -6.03409970	      2.55575984	     -2.55575984	      6.03409970	     -1.22178245	      9.87401596	      4.43830222	     -4.43830222	     -9.87401596	      1.22178245	     14.33973882	     24.93424038	    -14.33973882	      2.89300086	     84.98653701	     40.00261777	      0.15680484	      0.07835210	     11.03980744	      2.24462240	      3.36700001	      9.43816240	    -27.65299999	    -34.18400000	      6.02972704	      7.65299997	     26.93900001	     34.89800000	     -0.00008531	     -0.00003412	     -0.00017061	     -0.00010919	     -0.00032757	     -0.00018426	      0.00004241	     -0.00007788	     -0.00009345
      0.68000000	     -6.00564368	      2.54370721	     -2.54370721	      6.00564368	     -1.21602068	      9.82745140	      4.41737177	     -4.41737177	     -9.82745140	      1.21602068	     14.23758510	     24.81665380	    -14.23758510	      2.99467237	     85.45671160	     38.24136346	      0.12406125	      0.07027133	      8.92505731	      2.01312543	      3.36700001	      8.81006485	    -27.65299999	    -34.18400000	      8.27376628	      7.65299997	     26.93900001	     34.89800000	     -0.00007603	     -0.00003041	     -0.00015206	     -0.00009732	     -0.00029196	     -0.00016423	      0.00004241	     -0.00007788	     -0.00009345
      0.69000000	     -5.99821417	      2.54056042	     -2.54056042	      5.99821417	     -1.21451636	      9.81529397	      4.41190709	     -4.41190709	     -9.81529397	      1.21451636	     14.31908075	     24.78595340	    -14.31908075	      3.07765962	     85.66426354	     38.41923435	      0.12806452	      0.06346459	      9.18898732	      1.81812669	      3.36700001	      8.89476959	    -27.65299999	    -34.18400000	      7.78864677	      7.65299997	     26.93900001	     34.89800000	     -0.00006831	     -0.00002732	     -0.00013661	     -0.00008743	     -0.00026229	     -0.00014754	      0.00004241	     -0.00007788	     -0.00009345
      0.70000000	     -6.03125158	      2.55455351	     -2.55455351	      6.03125158	     -1.22120576	      9.86935539	      4.43620732	     -4.43620732	     -9.86935539	      1.22120576	     14.48551319	     24.92247135	    -14.48551319	      3.31924931	     85.72650351	     38.54177308	      0.12928330	      0.06504566	      9.26902267	      1.86342077	      3.36700001	      8.89546597	    -27.65299999	    -34.18400000	      7.65158495	      7.65299997	     26.93900001	     34.89800000	     -0.00007009	     -0.00002804	     -0.00014019	     -0.00008972	     -0.00026916	     -0.00015140	      0.00004241	     -0.00007788	     -0.00009345
      0.71000000	     -5.94539982	      2.51819076	     -2.51819076	      5.94539982	     -1.20382253	      9.72887019	      4.37306020	     -4.37306020	     -9.72887019	      1.20382253	     14.37152012	     24.56771279	    -14.37152012	      3.85923070	     87.95248553	     31.37130328	      0.21793837	      0.13662101	     14.71912699	      3.91390359	      3.36700001	      9.77272166	    -27.65299999	    -34.18400000	      4.38135487	      7.65299997	     26.93900001	     34.89800000	     -0.00015541	     -0.00006217	     -0.00031083	     -0.00019893	     -0.00059679	     -0.00033569	      0.00004241	     -0.00007788	     -0.00009345
      0.72000000	     -5.91796013	      2.50656860	     -2.50656860	      5.91796013	     -1.19826655	      9.68396872	      4.35287729	     -4.35287729	     -9.68396872	      1.19826655	     14.28236811	     24.45432588	    -14.28236811	      3.75037130	     88.18741443	     31.32120411	      0.21751999	      0.13436541	     14.69508830	      3.84928548	      3.36700001	      9.82159221	    -27.65299999	    -34.18400000	      4.29824235	      7.65299997	     26.93900001	     34.89800000	     -0.00015259	     -0.00006104	     -0.00030519	     -0.00019532	     -0.00058596	     -0.00032960	      0.00004241	     -0.00007788	     -0.00009345
